<svg width="18" height="24" viewBox="0 0 18 24" fill="none" xmlns="http://www.w3.org/2000/svg">
<path d="M18 8.78049C18 13.6298 13.9706 17.561 9 17.561C4.02944 17.561 0 13.6298 0 8.78049C0 3.93116 4.02944 0 9 0C13.9706 0 18 3.93116 18 8.78049Z" fill="#5A57DC"/>
<path d="M9.80997 22.88C9.41087 23.4319 8.5889 23.432 8.18959 22.8803L1.76205 14L16.1437 14.122L9.80997 22.88Z" fill="#5A57DC"/>
<path d="M6.62185 9.22088C6.19199 9.22057 5.7798 9.03587 5.47574 8.70733C5.17168 8.37879 5.00058 7.93323 5 7.46845C5 7.34317 5.04603 7.22303 5.12795 7.13444C5.20988 7.04586 5.321 6.99609 5.43686 6.99609C5.55272 6.99609 5.66384 7.04586 5.74577 7.13444C5.82769 7.22303 5.87372 7.34317 5.87372 7.46845C5.87372 7.68423 5.953 7.89118 6.09412 8.04377C6.23524 8.19635 6.42664 8.28207 6.62621 8.28207C6.82579 8.28207 7.01718 8.19635 7.1583 8.04377C7.29942 7.89118 7.37871 7.68423 7.37871 7.46845C7.37871 7.34317 7.42473 7.22303 7.50666 7.13444C7.58859 7.04586 7.6997 6.99609 7.81557 6.99609C7.93143 6.99609 8.04255 7.04586 8.12447 7.13444C8.2064 7.22303 8.25243 7.34317 8.25243 7.46845C8.25214 7.69939 8.2097 7.928 8.12753 8.14117C8.04537 8.35434 7.92509 8.54787 7.77361 8.71067C7.62212 8.87348 7.44241 9.00235 7.24476 9.08991C7.04712 9.17746 6.83543 9.22197 6.62185 9.22088Z" fill="white"/>
<path d="M8.99514 9.22088C8.56547 9.22025 8.15356 9.03542 7.84974 8.70691C7.54591 8.3784 7.37497 7.93303 7.37439 7.46845C7.37439 7.34317 7.42042 7.22303 7.50234 7.13444C7.58427 7.04586 7.69539 6.99609 7.81125 6.99609C7.92711 6.99609 8.03823 7.04586 8.12016 7.13444C8.20208 7.22303 8.24811 7.34317 8.24811 7.46845C8.24811 7.68423 8.32739 7.89118 8.46851 8.04377C8.60963 8.19635 8.80103 8.28207 9.0006 8.28207C9.20018 8.28207 9.39157 8.19635 9.53269 8.04377C9.67381 7.89118 9.7531 7.68423 9.7531 7.46845C9.7531 7.34317 9.79912 7.22303 9.88105 7.13444C9.96298 7.04586 10.0741 6.99609 10.19 6.99609C10.3058 6.99609 10.4169 7.04586 10.4989 7.13444C10.5808 7.22303 10.6268 7.34317 10.6268 7.46845C10.6265 7.69949 10.5841 7.92819 10.5018 8.14144C10.4196 8.35469 10.2992 8.54827 10.1476 8.7111C9.99601 8.87392 9.81616 9.00277 9.61839 9.09025C9.42062 9.17773 9.20882 9.22212 8.99514 9.22088Z" fill="white"/>
<path d="M11.3683 9.22088C10.9386 9.22025 10.5267 9.03542 10.2229 8.70691C9.91908 8.3784 9.74814 7.93303 9.74756 7.46845C9.74756 7.34317 9.79358 7.22303 9.87551 7.13444C9.95744 7.04586 10.0686 6.99609 10.1844 6.99609C10.3003 6.99609 10.4114 7.04586 10.4933 7.13444C10.5753 7.22303 10.6213 7.34317 10.6213 7.46845C10.6213 7.68423 10.7006 7.89118 10.8417 8.04377C10.9828 8.19635 11.1742 8.28207 11.3738 8.28207C11.5733 8.28207 11.7647 8.19635 11.9059 8.04377C12.047 7.89118 12.1263 7.68423 12.1263 7.46845C12.1263 7.34317 12.1723 7.22303 12.2542 7.13444C12.3361 7.04586 12.4473 6.99609 12.5631 6.99609C12.679 6.99609 12.7901 7.04586 12.872 7.13444C12.954 7.22303 13 7.34317 13 7.46845C12.9998 7.69953 12.9575 7.92831 12.8753 8.14162C12.7931 8.35494 12.6727 8.54859 12.5211 8.71145C12.3695 8.8743 12.1896 9.00314 11.9917 9.09057C11.7939 9.17799 11.582 9.22228 11.3683 9.22088Z" fill="white"/>
<path d="M12.5548 7.91088C12.4727 7.91051 12.3925 7.88517 12.3231 7.83776C12.2538 7.79036 12.1982 7.7228 12.1627 7.64282L11.4124 5.9388H6.57635L5.82604 7.64282C5.76949 7.74188 5.68109 7.81486 5.57781 7.84777C5.47453 7.88068 5.36365 7.87119 5.26645 7.82113C5.16925 7.77107 5.09257 7.68396 5.05112 7.57652C5.00967 7.46907 5.00638 7.34886 5.04188 7.23895L5.91014 5.26688C5.94578 5.18712 6.00144 5.1198 6.07077 5.07261C6.14009 5.02542 6.2203 5.00026 6.30222 5H11.6865C11.7685 5.00026 11.8487 5.02542 11.918 5.07261C11.9873 5.1198 12.043 5.18712 12.0786 5.26688L12.9523 7.23895C12.9832 7.31061 12.997 7.38952 12.9924 7.46842C12.9877 7.54733 12.9649 7.62372 12.9258 7.69059C12.8868 7.75746 12.8329 7.81267 12.769 7.85116C12.7052 7.88964 12.6334 7.91018 12.5602 7.91088H12.5548Z" fill="white"/>
<path d="M9.84157 12.9566C9.72571 12.9566 9.61459 12.9069 9.53266 12.8183C9.45073 12.7297 9.40471 12.6096 9.40471 12.4843V10.7732H8.57904V12.4867C8.57904 12.6119 8.53302 12.7321 8.45109 12.8207C8.36916 12.9092 8.25804 12.959 8.14218 12.959C8.02632 12.959 7.9152 12.9092 7.83328 12.8207C7.75135 12.7321 7.70532 12.6119 7.70532 12.4867V10.3044C7.70532 10.1791 7.75135 10.059 7.83328 9.97038C7.9152 9.8818 8.02632 9.83203 8.14218 9.83203H9.83502C9.95088 9.83203 10.062 9.8818 10.1439 9.97038C10.2258 10.059 10.2719 10.1791 10.2719 10.3044V12.4867C10.2713 12.6103 10.2259 12.7288 10.1455 12.8167C10.065 12.9045 9.95591 12.9548 9.84157 12.9566Z" fill="white"/>
<path d="M12.099 12.9583H5.89011C5.77424 12.9583 5.66313 12.9085 5.5812 12.8199C5.49927 12.7313 5.45325 12.6112 5.45325 12.4859V8.65986C5.46524 8.54444 5.51613 8.43784 5.59622 8.36043C5.6763 8.28303 5.77996 8.24023 5.88737 8.24023C5.99479 8.24023 6.09845 8.28303 6.17853 8.36043C6.25861 8.43784 6.30952 8.54444 6.32151 8.65986V12.0171H11.6621V8.66222C11.6741 8.5468 11.725 8.44021 11.8051 8.3628C11.8852 8.28539 11.9888 8.2426 12.0963 8.2426C12.2037 8.2426 12.3073 8.28539 12.3874 8.3628C12.4675 8.44021 12.5184 8.5468 12.5304 8.66222V12.4883C12.5298 12.6121 12.4843 12.7308 12.4036 12.8187C12.3229 12.9066 12.2135 12.9567 12.099 12.9583Z" fill="white"/>
</svg>
