<svg width="304" height="105" viewBox="0 0 304 105" fill="none" xmlns="http://www.w3.org/2000/svg">
<path d="M296.314 10.2598C296.314 11.002 296.1 11.5708 295.67 11.9663C295.245 12.3618 294.642 12.5596 293.861 12.5596C293.08 12.5596 292.457 12.3008 291.993 11.7832C291.534 11.2607 291.305 10.5601 291.305 9.68115L291.305 8.85352C291.305 8.00391 291.537 7.32031 292 6.80273C292.469 6.28027 293.089 6.01904 293.861 6.01904C294.657 6.01904 295.265 6.22168 295.685 6.62695C296.109 7.02734 296.322 7.59131 296.322 8.31885L295.179 8.31885C295.179 7.8501 295.067 7.51562 294.842 7.31543C294.618 7.11035 294.291 7.00781 293.861 7.00781C293.412 7.00781 293.06 7.17383 292.806 7.50586C292.557 7.83789 292.433 8.29199 292.433 8.86816L292.433 9.7251C292.433 10.3013 292.56 10.7529 292.813 11.0801C293.067 11.4072 293.417 11.5708 293.861 11.5708C294.295 11.5708 294.623 11.4731 294.842 11.2778C295.062 11.0776 295.172 10.7383 295.172 10.2598L296.314 10.2598ZM298.263 9.28564C298.263 8.4751 298.08 7.72314 297.713 7.02978C297.347 6.33154 296.83 5.7749 296.161 5.35986C295.492 4.93994 294.759 4.72998 293.963 4.72998C293.187 4.72998 292.464 4.93018 291.795 5.33057C291.131 5.73096 290.609 6.28271 290.228 6.98584C289.847 7.68896 289.657 8.45557 289.657 9.28564C289.657 10.1157 289.845 10.8823 290.221 11.5854C290.602 12.2886 291.124 12.8452 291.788 13.2554C292.457 13.6606 293.182 13.8633 293.963 13.8633C294.745 13.8633 295.47 13.6558 296.139 13.2407C296.812 12.8257 297.335 12.2666 297.706 11.5635C298.077 10.8604 298.263 10.1011 298.263 9.28564ZM288.763 9.28564C288.763 8.29932 288.99 7.38379 289.444 6.53906C289.903 5.69434 290.536 5.03027 291.341 4.54687C292.152 4.05859 293.026 3.81445 293.963 3.81445C294.901 3.81445 295.772 4.05859 296.578 4.54687C297.384 5.03027 298.014 5.69434 298.468 6.53906C298.927 7.38379 299.156 8.29932 299.156 9.28564C299.156 10.272 298.927 11.1875 298.468 12.0322C298.014 12.877 297.386 13.5459 296.585 14.0391C295.785 14.5273 294.911 14.7715 293.963 14.7715C293.021 14.7715 292.147 14.5273 291.341 14.0391C290.541 13.5508 289.911 12.8843 289.452 12.0396C288.993 11.1948 288.763 10.2769 288.763 9.28564Z" fill="white"/>
<path d="M21.7408 87.5924C16.9109 87.1319 11.2142 86.3089 3.30439 86.5851C3.30439 86.5851 2.99428 86.5959 3.05807 86.2006C8.18366 48.4375 8.93874 43.379 8.936 43.3005C9.38511 33.928 4.341 36.2271 5.35542 34.1474C6.66073 31.5071 12.212 28.1682 16.7873 28.0084C22.8359 27.7972 27.7701 31.2417 26.5317 40.2486C25.7507 45.636 23.5466 61.511 22.0573 72.3487C22.0351 72.5109 22.0481 72.676 22.0956 72.8325C22.1431 72.9891 22.2239 73.1332 22.3322 73.2548C22.4405 73.3765 22.5738 73.4726 22.7227 73.5365C22.8716 73.6004 23.0325 73.6306 23.1941 73.6248C39.479 73.0562 38.1787 69.17 39.3802 70.2288C40.3383 70.9816 40.8611 72.6147 40.833 74.0308C40.5911 84.8899 30.3924 88.5485 21.7408 87.5924Z" fill="white"/>
<path d="M87.1537 79.8064C86.0005 82.3626 81.3772 85.5908 77.0346 85.7425C73.0735 85.8808 70.0252 84.1344 68.6299 80.9558C68.4945 80.6461 68.2847 80.3757 68.0195 80.1693C67.7543 79.963 67.4423 79.8272 67.112 79.7744C66.7817 79.7217 66.4438 79.7537 66.129 79.8674C65.8142 79.9812 65.5327 80.1731 65.3103 80.4256C62.2589 83.921 58.5096 86.3106 54.3103 86.4572C44.5394 86.7984 40.6686 76.0044 42.0847 65.4189C43.5701 54.595 50.4921 43.8172 60.6509 43.4624C64.0015 43.3454 66.5731 44.458 68.465 46.3721C68.7252 46.641 69.0543 46.8311 69.4153 46.9211C69.7762 47.0112 70.1547 46.9975 70.5082 46.8817C70.8617 46.7659 71.1763 46.5526 71.4165 46.2656C71.6567 45.9787 71.8131 45.6295 71.8681 45.2573C71.8818 45.163 71.889 45.1142 71.889 45.1142C71.9079 44.9887 71.9678 44.8733 72.059 44.7863C72.1715 44.6828 72.3174 44.6245 72.4694 44.6222L87.8473 44.0852C87.8889 44.0932 87.9283 44.1097 87.9634 44.1336C87.9985 44.1575 88.0285 44.1884 88.0515 44.2243C88.0745 44.2602 88.0901 44.3005 88.0973 44.3427C88.1045 44.3849 88.1032 44.4281 88.0935 44.4697C88.0935 44.4697 85.0742 62.5023 84.3328 67.9535C82.5976 80.5158 88.2429 77.6455 87.1537 79.8064ZM69.6915 64.4548C70.494 58.5298 69.1635 53.7797 65.3637 53.9124C61.5638 54.0451 58.862 58.9359 58.0595 64.861C57.257 70.7861 58.5847 75.4573 62.3845 75.3246C66.1844 75.1919 68.8892 70.3799 69.6915 64.4548Z" fill="white"/>
<path d="M133.909 62.521C132.424 73.3447 125.58 84.12 115.421 84.4748C110.966 84.6303 107.889 82.6127 105.955 79.4281C105.874 79.2983 105.756 79.1969 105.616 79.1375C105.476 79.0781 105.322 79.0637 105.174 79.0962C105.026 79.1287 104.892 79.2066 104.789 79.3192C104.686 79.4318 104.621 79.5738 104.6 79.7257C104.322 81.7874 104.185 82.9013 104.185 82.9013C104.166 83.0268 104.107 83.1423 104.015 83.2293C103.903 83.3327 103.757 83.3911 103.605 83.3933L88.8476 83.9087C88.806 83.9006 88.7665 83.8842 88.7314 83.8603C88.6963 83.8364 88.6664 83.8055 88.6434 83.7696C88.6203 83.7337 88.6047 83.6934 88.5975 83.6512C88.5902 83.609 88.5914 83.5658 88.6011 83.5242L96.3396 28.8261C96.4047 28.3657 96.6276 27.9432 96.9694 27.6326C97.3111 27.3221 97.7499 27.1431 98.209 27.1271L110.854 26.6855C110.949 26.6821 111.043 26.6993 111.13 26.736C111.218 26.7728 111.296 26.8281 111.36 26.8984C111.425 26.9686 111.474 27.052 111.503 27.143C111.533 27.234 111.543 27.3303 111.532 27.4255C111.22 30.2816 110.086 40.4629 109.151 46.7652C109.122 46.9648 109.157 47.1688 109.252 47.3465C109.347 47.5242 109.496 47.6659 109.677 47.7503C109.858 47.8347 110.062 47.8572 110.257 47.8144C110.451 47.7717 110.627 47.666 110.757 47.5132C113.763 44.0162 117.55 41.6271 121.761 41.48C131.532 41.1388 135.403 51.9325 133.909 62.521ZM118.012 63.0762C118.814 57.1511 117.487 52.4799 113.687 52.6126C109.887 52.7452 107.182 57.5573 106.38 63.4824C105.578 69.4074 106.908 74.1574 110.708 74.0247C114.508 73.892 117.21 69.0012 118.012 63.0762Z" fill="white"/>
<path d="M179.731 60.9195C178.245 71.7431 171.401 82.5184 161.242 82.8732C156.788 83.0287 153.711 81.0112 151.777 77.8267C151.696 77.6969 151.577 77.5954 151.438 77.5361C151.298 77.4767 151.144 77.4623 150.996 77.4948C150.848 77.5273 150.713 77.6052 150.611 77.7178C150.508 77.8304 150.442 77.9724 150.422 78.1243C150.144 80.1859 150.007 81.2999 150.007 81.2999C149.988 81.4253 149.928 81.5408 149.837 81.6278C149.725 81.7313 149.579 81.7896 149.427 81.7919L134.669 82.3072C134.628 82.2992 134.588 82.2827 134.553 82.2588C134.518 82.2349 134.488 82.204 134.465 82.1681C134.442 82.1322 134.427 82.0919 134.419 82.0497C134.412 82.0076 134.413 81.9643 134.423 81.9227L142.161 27.2246C142.226 26.7642 142.449 26.3417 142.791 26.0311C143.133 25.7205 143.572 25.5415 144.031 25.5255L156.676 25.0839C156.77 25.0805 156.864 25.0977 156.952 25.1345C157.039 25.1712 157.118 25.2266 157.182 25.2968C157.247 25.367 157.295 25.4505 157.325 25.5414C157.355 25.6324 157.365 25.7288 157.354 25.8239C157.041 28.6802 155.908 38.8626 154.973 45.1647C154.943 45.3643 154.979 45.5683 155.073 45.7459C155.168 45.9235 155.317 46.0652 155.499 46.1495C155.68 46.2339 155.883 46.2564 156.078 46.2137C156.273 46.171 156.448 46.0653 156.578 45.9126C159.584 42.4149 163.371 40.0255 167.583 39.8785C177.354 39.5372 181.225 50.331 179.731 60.9195ZM163.834 61.4746C164.636 55.5496 163.308 50.8783 159.509 51.011C155.709 51.1437 153.004 55.9557 152.202 61.8808C151.399 67.8058 152.73 72.5558 156.53 72.4231C160.329 72.2904 163.031 67.3996 163.834 61.4746Z" fill="white"/>
<path d="M226.579 74.9353C225.426 77.4915 220.802 80.7197 216.46 80.8714C212.489 81.0101 209.435 79.2544 208.045 76.0604C207.911 75.7531 207.703 75.4847 207.44 75.2798C207.177 75.0749 206.867 74.9401 206.54 74.8878C206.212 74.8355 205.877 74.8673 205.565 74.9803C205.252 75.0933 204.973 75.2839 204.753 75.5346C201.698 79.0408 197.943 81.4392 193.736 81.5861C183.965 81.9273 180.094 71.1333 181.51 60.5478C182.995 49.7239 189.917 38.9461 200.076 38.5913C203.448 38.4736 206.031 39.6012 207.927 41.538C208.183 41.8039 208.508 41.9921 208.865 42.0813C209.221 42.1704 209.595 42.157 209.944 42.0426C210.294 41.9282 210.604 41.7173 210.841 41.4336C211.078 41.15 211.232 40.8049 211.286 40.4372C211.305 40.3095 211.314 40.2431 211.314 40.2431C211.333 40.1176 211.393 40.0022 211.484 39.9152C211.597 39.8117 211.743 39.7534 211.895 39.7511L227.273 39.2141C227.314 39.2221 227.354 39.2386 227.389 39.2625C227.424 39.2864 227.454 39.3173 227.477 39.3532C227.5 39.3891 227.515 39.4294 227.523 39.4716C227.53 39.5138 227.529 39.557 227.519 39.5986C227.519 39.5986 224.5 57.6311 223.758 63.0823C222.023 75.6447 227.668 72.7744 226.579 74.9353ZM209.117 59.5837C209.919 53.6587 208.589 48.9086 204.789 49.0413C200.989 49.174 198.287 54.0648 197.485 59.9899C196.682 65.915 198.01 70.5862 201.81 70.4535C205.61 70.3208 208.314 65.5088 209.117 59.5837Z" fill="white"/>
<path d="M244.315 95.9407C232.993 96.336 228.847 88.7753 228.355 85.8044C227.6 81.978 228.506 81.239 229.287 81.3688C231.159 81.6178 232.531 87.5457 241.216 87.2424C247.42 87.0258 251.615 82.6334 252.458 77.8863L252.47 77.8127C252.788 75.7554 250.41 74.3853 248.84 75.7295C245.739 78.385 242.452 79.4937 239.784 79.5869C234.046 79.7873 229.835 74.8236 230.957 66.9217C231.384 63.6043 231.759 60.9967 232.562 55.0716C234.297 42.509 228.031 45.4012 229.043 43.2428C230.273 40.6838 234.819 37.4586 239.162 37.3069C245.443 37.0876 249.945 41.4908 248.962 48.9162C248.59 51.6026 247.66 58.3183 246.841 63.7722C245.797 71.6714 253.456 68.652 254.918 59.4017C255.846 52.5641 256.822 46.293 257.453 42.3774C257.642 41.2042 258.227 40.134 259.108 39.349C259.989 38.564 261.111 38.1127 262.285 38.072L271.359 37.7551C271.575 37.7475 271.79 37.7872 271.989 37.8716C272.189 37.956 272.368 38.0831 272.514 38.2441C272.66 38.4052 272.77 38.5963 272.837 38.8045C272.903 39.0126 272.925 39.2328 272.899 39.45C272.234 45.1003 270.121 62.9542 268.936 71.7284C267.472 85.3822 258.661 95.4397 244.315 95.9407Z" fill="white"/>
<path d="M280.788 78.3891C276.6 78.5354 273.688 75.1774 274.313 70.8311C274.862 66.566 278.697 62.9725 282.884 62.8263C287.072 62.68 290.061 66.0352 289.434 70.3031C288.809 74.6494 284.975 78.2429 280.788 78.3891ZM283.082 59.5957C277.576 59.788 278.898 42.0505 279.675 35.4186C281.103 22.9455 275.765 25.7267 276.777 23.5683C277.933 21.0905 282.553 17.7841 286.896 17.6324C293.177 17.4131 297.059 21.8379 296.001 29.3445C294.643 39.3776 289.363 59.3764 283.082 59.5957Z" fill="white"/>
</svg>
