<svg
  width="256"
  height="256"
  viewBox="0 0 315 105"
  fill="none"
  xmlns="http://www.w3.org/2000/svg"
>
<path
    d="M305.035 13.1797C305.035 14.1693 304.749 14.9277 304.176 15.4551C303.609 15.9824 302.805 16.2461 301.764 16.2461C300.722 16.2461 299.892 15.901 299.274 15.2109C298.662 14.5143 298.356 13.5801 298.356 12.4082L298.356 11.3047C298.356 10.1719 298.665 9.26042 299.283 8.57031C299.908 7.8737 300.735 7.52539 301.764 7.52539C302.825 7.52539 303.636 7.79557 304.195 8.33594C304.762 8.86979 305.045 9.62174 305.045 10.5918L303.522 10.5918C303.522 9.9668 303.372 9.52083 303.072 9.25391C302.773 8.98047 302.337 8.84375 301.764 8.84375C301.165 8.84375 300.696 9.0651 300.358 9.50781C300.026 9.95052 299.859 10.556 299.859 11.3242L299.859 12.4668C299.859 13.235 300.029 13.8372 300.367 14.2734C300.706 14.7096 301.171 14.9277 301.764 14.9277C302.343 14.9277 302.779 14.7975 303.072 14.5371C303.365 14.2702 303.512 13.8177 303.512 13.1797L305.035 13.1797ZM307.633 11.8809C307.633 10.8001 307.389 9.79753 306.901 8.87305C306.412 7.94206 305.722 7.19987 304.83 6.64648C303.938 6.08659 302.962 5.80664 301.901 5.80664C300.865 5.80664 299.902 6.07357 299.01 6.60742C298.124 7.14128 297.428 7.87695 296.92 8.81445C296.412 9.75195 296.158 10.7741 296.158 11.8809C296.158 12.9876 296.409 14.0098 296.91 14.9473C297.418 15.8848 298.115 16.627 299 17.1738C299.892 17.7142 300.859 17.9844 301.901 17.9844C302.942 17.9844 303.909 17.7077 304.801 17.1543C305.699 16.6009 306.396 15.8555 306.891 14.918C307.386 13.9805 307.633 12.9681 307.633 11.8809ZM294.967 11.8809C294.967 10.5658 295.27 9.34505 295.875 8.21875C296.487 7.09245 297.33 6.20703 298.404 5.5625C299.485 4.91146 300.651 4.58594 301.901 4.58594C303.151 4.58594 304.313 4.91146 305.387 5.5625C306.461 6.20703 307.301 7.09245 307.906 8.21875C308.518 9.34505 308.824 10.5658 308.824 11.8809C308.824 13.196 308.518 14.4167 307.906 15.543C307.301 16.6693 306.464 17.5612 305.397 18.2187C304.329 18.8698 303.164 19.1953 301.901 19.1953C300.644 19.1953 299.479 18.8698 298.404 18.2187C297.337 17.5677 296.497 16.679 295.885 15.5527C295.273 14.4264 294.967 13.2025 294.967 11.8809Z"
    fill="#5A57DC"
  />
<path
    d="M21.3289 87.5885C16.4991 87.128 10.8024 86.305 2.89252 86.5812C2.89252 86.5812 2.58241 86.592 2.6462 86.1967C7.7718 48.4336 8.52688 43.3751 8.52414 43.2966C8.97324 33.9241 3.92914 36.2232 4.94355 34.1435C6.24887 31.5032 11.8002 28.1643 16.3755 28.0045C22.4241 27.7933 27.3583 31.2378 26.1198 40.2447C25.3389 45.6321 23.1347 61.5071 21.6455 72.3448C21.6232 72.507 21.6363 72.6721 21.6838 72.8286C21.7313 72.9852 21.812 73.1293 21.9203 73.2509C22.0287 73.3726 22.162 73.4687 22.3109 73.5326C22.4598 73.5965 22.6206 73.6267 22.7822 73.6209C39.0671 73.0523 37.7668 69.1661 38.9684 70.2249C39.9264 70.9777 40.4492 72.6108 40.4211 74.0269C40.1792 84.886 29.9806 88.5446 21.3289 87.5885Z"
    fill="#5A57DC"
  />
<path
    d="M86.7418 79.8025C85.5886 82.3587 80.9653 85.5869 76.6228 85.7386C72.6617 85.8769 69.6133 84.1305 68.2181 80.9519C68.0827 80.6422 67.8728 80.3718 67.6076 80.1654C67.3424 79.959 67.0304 79.8233 66.7001 79.7705C66.3699 79.7178 66.0319 79.7498 65.7171 79.8635C65.4024 79.9773 65.1209 80.1692 64.8984 80.4217C61.8471 83.9171 58.0977 86.3067 53.8985 86.4533C44.1275 86.7945 40.2567 76.0005 41.6728 65.415C43.1582 54.5911 50.0803 43.8133 60.239 43.4585C63.5897 43.3415 66.1612 44.4541 68.0531 46.3682C68.3134 46.6371 68.6425 46.8272 69.0034 46.9172C69.3643 47.0073 69.7428 46.9936 70.0963 46.8778C70.4499 46.762 70.7644 46.5486 71.0046 46.2617C71.2449 45.9747 71.4013 45.6256 71.4563 45.2534C71.4699 45.1591 71.4771 45.1103 71.4771 45.1103C71.4961 44.9848 71.5559 44.8694 71.6471 44.7824C71.7596 44.6789 71.9055 44.6206 72.0575 44.6183L87.4355 44.0813C87.477 44.0893 87.5165 44.1058 87.5516 44.1297C87.5866 44.1536 87.6166 44.1845 87.6396 44.2204C87.6626 44.2563 87.6782 44.2966 87.6854 44.3388C87.6926 44.381 87.6914 44.4242 87.6817 44.4658C87.6817 44.4658 84.6623 62.4983 83.9209 67.9495C82.1857 80.5119 87.831 77.6416 86.7418 79.8025ZM69.2796 64.4509C70.0821 58.5259 68.7516 53.7758 64.9518 53.9085C61.152 54.0412 58.4501 58.932 57.6476 64.8571C56.8451 70.7822 58.1728 75.4534 61.9727 75.3207C65.7725 75.188 68.4774 70.3759 69.2796 64.4509Z"
    fill="#5A57DC"
  />
<path
    d="M133.274 62.6109C131.789 73.4346 124.945 84.2098 114.786 84.5646C110.332 84.7201 107.254 82.7025 105.32 79.5179C105.239 79.3882 105.121 79.2867 104.981 79.2273C104.842 79.168 104.687 79.1536 104.539 79.1861C104.391 79.2186 104.257 79.2964 104.154 79.4091C104.052 79.5217 103.986 79.6636 103.966 79.8156C103.687 81.8772 103.551 82.9912 103.551 82.9912C103.532 83.1167 103.472 83.2321 103.381 83.3191C103.268 83.4226 103.122 83.4809 102.97 83.4832L88.2128 83.9985C88.1713 83.9905 88.1318 83.974 88.0967 83.9501C88.0616 83.9262 88.0316 83.8954 88.0086 83.8594C87.9856 83.8235 87.97 83.7833 87.9627 83.7411C87.9554 83.6989 87.9567 83.6557 87.9663 83.614L95.7048 28.916C95.7699 28.4555 95.9929 28.0331 96.3346 27.7225C96.6763 27.4119 97.1151 27.2329 97.5742 27.2169L110.219 26.7753C110.314 26.7719 110.408 26.7891 110.495 26.8259C110.583 26.8626 110.661 26.918 110.726 26.9882C110.79 27.0584 110.839 27.1419 110.868 27.2328C110.898 27.3238 110.908 27.4202 110.898 27.5154C110.585 30.3715 109.452 40.5528 108.516 46.855C108.487 47.0547 108.522 47.2587 108.617 47.4364C108.712 47.614 108.861 47.7557 109.042 47.8401C109.224 47.9245 109.427 47.947 109.622 47.9043C109.817 47.8615 109.992 47.7558 110.123 47.6031C113.128 44.106 116.915 41.7169 121.126 41.5698C130.897 41.2286 134.768 52.0224 133.274 62.6109ZM117.377 63.166C118.18 57.241 116.852 52.5697 113.052 52.7024C109.252 52.8351 106.548 57.6472 105.745 63.5722C104.943 69.4972 106.273 74.2472 110.073 74.1145C113.873 73.9818 116.575 69.091 117.377 63.166Z"
    fill="#5A57DC"
  />
<path
    d="M179.319 60.9155C177.834 71.7392 170.989 82.5145 160.831 82.8693C156.376 83.0248 153.299 81.0073 151.365 77.8228C151.284 77.693 151.166 77.5915 151.026 77.5322C150.886 77.4728 150.732 77.4584 150.584 77.4909C150.436 77.5234 150.302 77.6012 150.199 77.7139C150.096 77.8265 150.03 77.9685 150.01 78.1204C149.732 80.182 149.595 81.296 149.595 81.296C149.576 81.4214 149.517 81.5369 149.425 81.6239C149.313 81.7274 149.167 81.7857 149.015 81.788L134.257 82.3033C134.216 82.2952 134.176 82.2788 134.141 82.2549C134.106 82.231 134.076 82.2001 134.053 82.1642C134.03 82.1283 134.015 82.088 134.007 82.0458C134 82.0037 134.001 81.9604 134.011 81.9188L141.749 27.2207C141.815 26.7603 142.038 26.3378 142.379 26.0272C142.721 25.7166 143.16 25.5376 143.619 25.5216L156.264 25.08C156.358 25.0766 156.453 25.0938 156.54 25.1306C156.627 25.1673 156.706 25.2227 156.77 25.2929C156.835 25.3631 156.883 25.4465 156.913 25.5375C156.943 25.6285 156.953 25.7249 156.942 25.82C156.629 28.6763 155.496 38.8587 154.561 45.1608C154.531 45.3604 154.567 45.5644 154.662 45.742C154.756 45.9196 154.906 46.0613 155.087 46.1456C155.268 46.23 155.471 46.2525 155.666 46.2098C155.861 46.167 156.036 46.0614 156.167 45.9087C159.172 42.411 162.959 40.0216 167.171 39.8746C176.942 39.5333 180.813 50.3271 179.319 60.9155ZM163.422 61.4707C164.224 55.5456 162.897 50.8744 159.097 51.0071C155.297 51.1398 152.592 55.9518 151.79 61.8769C150.988 67.8019 152.318 72.5519 156.118 72.4192C159.918 72.2865 162.62 67.3957 163.422 61.4707Z"
    fill="#5A57DC"
  />
<path
    d="M226.167 74.9314C225.014 77.4876 220.391 80.7158 216.048 80.8675C212.077 81.0062 209.023 79.2505 207.633 76.0565C207.499 75.7491 207.291 75.4807 207.028 75.2759C206.765 75.071 206.455 74.9362 206.128 74.8839C205.8 74.8316 205.465 74.8634 205.153 74.9764C204.841 75.0894 204.561 75.28 204.341 75.5307C201.287 79.0369 197.531 81.4353 193.324 81.5822C183.553 81.9234 179.682 71.1294 181.098 60.5439C182.584 49.72 189.506 38.9422 199.664 38.5874C203.037 38.4696 205.62 39.5973 207.515 41.534C207.772 41.8 208.096 41.9882 208.453 42.0773C208.809 42.1665 209.183 42.1531 209.532 42.0387C209.882 41.9243 210.192 41.7134 210.429 41.4297C210.666 41.1461 210.821 40.801 210.874 40.4332C210.893 40.3056 210.902 40.2392 210.902 40.2392C210.921 40.1137 210.981 39.9983 211.072 39.9113C211.185 39.8078 211.331 39.7495 211.483 39.7472L226.861 39.2102C226.902 39.2182 226.942 39.2347 226.977 39.2586C227.012 39.2825 227.042 39.3134 227.065 39.3493C227.088 39.3852 227.104 39.4255 227.111 39.4677C227.118 39.5099 227.117 39.5531 227.107 39.5947C227.107 39.5947 224.088 57.6272 223.346 63.0784C221.611 75.6408 227.256 72.7705 226.167 74.9314ZM208.705 59.5798C209.507 53.6548 208.177 48.9047 204.377 49.0374C200.577 49.1701 197.875 54.0609 197.073 59.986C196.27 65.9111 197.598 70.5823 201.398 70.4496C205.198 70.3169 207.903 65.5049 208.705 59.5798Z"
    fill="#5A57DC"
  />
<path
    d="M243.903 95.9367C232.581 96.3321 228.435 88.7714 227.943 85.8005C227.189 81.9741 228.094 81.2351 228.875 81.3649C230.747 81.6139 232.119 87.5418 240.804 87.2385C247.008 87.0219 251.203 82.6295 252.046 77.8824L252.058 77.8088C252.377 75.7515 249.999 74.3814 248.429 75.7256C245.327 78.3811 242.04 79.4898 239.373 79.583C233.634 79.7834 229.423 74.8197 230.545 66.9178C230.973 63.6004 231.347 60.9928 232.15 55.0677C233.885 42.5051 227.619 45.3973 228.631 43.2389C229.862 40.6799 234.408 37.4547 238.75 37.303C245.031 37.0837 249.533 41.4869 248.55 48.9123C248.178 51.5987 247.248 58.3144 246.429 63.7683C245.385 71.6675 253.044 68.6481 254.507 59.3978C255.434 52.5602 256.41 46.2891 257.041 42.3735C257.23 41.2003 257.815 40.1301 258.696 39.3451C259.577 38.5601 260.7 38.1088 261.873 38.0681L270.947 37.7512C271.163 37.7436 271.378 37.7833 271.578 37.8677C271.777 37.9521 271.956 38.0792 272.102 38.2402C272.248 38.4013 272.359 38.5924 272.425 38.8006C272.491 39.0087 272.513 39.2289 272.487 39.4461C271.822 45.0964 269.709 62.9503 268.524 71.7245C267.06 85.3783 258.25 95.4358 243.903 95.9367Z"
    fill="#5A57DC"
  />
<path
    d="M280.376 78.3852C276.188 78.5315 273.276 75.1735 273.901 70.8272C274.45 66.5621 278.285 62.9686 282.472 62.8223C286.66 62.6761 289.65 66.0313 289.022 70.2992C288.398 74.6455 284.563 78.239 280.376 78.3852ZM282.67 59.5918C277.164 59.7841 278.486 42.0466 279.264 35.4147C280.691 22.9416 275.354 25.7227 276.365 23.5644C277.521 21.0866 282.142 17.7802 286.484 17.6285C292.766 17.4092 296.647 21.834 295.589 29.3406C294.231 39.3737 288.951 59.3724 282.67 59.5918Z"
    fill="#5A57DC"
  />
</svg>
