<svg
  width="18"
  height="18"
  viewBox="0 0 31 33"
  fill="white"
  xmlns="http://www.w3.org/2000/svg"
>
<path
    d="M30.3934 15.3393L21.5023 6.44506C21.1641 6.11111 20.708 5.92383 20.2328 5.92383C19.7576 5.92383 19.3015 6.11111 18.9633 6.44506C18.6203 6.81317 18.4296 7.29767 18.4296 7.80089C18.4296 8.3041 18.6203 8.7886 18.9633 9.15671L24.8003 15.154H10.1128C9.63352 15.154 9.17386 15.3444 8.83496 15.6834C8.49606 16.0225 8.30566 16.4823 8.30566 16.9618C8.30566 17.4412 8.49606 17.901 8.83496 18.24C9.17386 18.579 9.63352 18.7695 10.1128 18.7695H24.7506L18.9633 24.4052C18.7975 24.5646 18.6656 24.7559 18.5756 24.9675C18.4855 25.1791 18.439 25.4068 18.439 25.6368C18.439 25.8668 18.4855 26.0944 18.5756 26.306C18.6656 26.5176 18.7975 26.7089 18.9633 26.8683C19.1318 27.0299 19.3309 27.1564 19.5489 27.2402C19.7669 27.324 19.9994 27.3635 20.2328 27.3564C20.7117 27.3496 21.1683 27.1529 21.5023 26.8095L30.3934 17.9063C30.73 17.5676 30.9189 17.1094 30.9189 16.6318C30.9189 16.1542 30.73 15.6961 30.3934 15.3573V15.3393Z"
    fill="white"
  />
<path
    d="M16.9079 32.8975H2.30176C1.82248 32.8975 1.36283 32.707 1.02392 32.368C0.685021 32.029 0.494629 31.5692 0.494629 31.0897V2.1066C0.494629 1.62715 0.685021 1.16731 1.02392 0.828284C1.36283 0.489261 1.82248 0.298828 2.30176 0.298828H16.9079C17.3872 0.298828 17.8468 0.489261 18.1857 0.828284C18.5246 1.16731 18.715 1.62715 18.715 2.1066C18.715 2.58605 18.5246 3.04584 18.1857 3.38487C17.8468 3.72389 17.3872 3.91438 16.9079 3.91438H4.09984V29.3091H16.9079C17.3872 29.3091 17.8468 29.4996 18.1857 29.8386C18.5246 30.1776 18.715 30.6374 18.715 31.1168C18.715 31.5963 18.5246 32.0561 18.1857 32.3951C17.8468 32.7341 17.3872 32.9246 16.9079 32.9246V32.8975Z"
    fill="white"
  />
</svg>
